<?xml version="1.0" encoding="UTF-8"?>
<svg width="19px" height="20px" viewBox="0 0 19 20" version="1.1" xmlns="http://www.w3.org/2000/svg" xmlns:xlink="http://www.w3.org/1999/xlink">
    <!-- Generator: Sketch 49.2 (51160) - http://www.bohemiancoding.com/sketch -->
    <title>icon-events-selected</title>
    <desc>Created with Sketch.</desc>
    <defs></defs>
    <g id="Symbols" stroke="none" stroke-width="1" fill="none" fill-rule="evenodd">
        <g id="icon-events-selected" fill="#FF8A65">
            <path d="M6.72916667,0 C5.71504167,0 4.88933333,0.474615385 4.23066667,1.10615385 C3.88075,0.970769231 3.56883333,0.769230769 3.16666667,0.769230769 C1.41629167,0.769230769 0,2.14538462 0,3.84615385 C0,4.63923077 0.309541667,5.36692308 0.816208333,5.91384615 C0.794833333,5.99153846 0.785333333,6.07307692 0.791666667,6.15384615 L0.791666667,16.9230769 C0.791666667,17.8215385 1.02679167,18.6415385 1.607875,19.2069231 C2.18975,19.7715385 3.03366667,20 3.95833333,20 L11.875,20 C12.7996667,20 13.6435833,19.7715385 14.2254583,19.2069231 C14.8065417,18.6415385 15.0416667,17.8215385 15.0416667,16.9230769 L15.0416667,15.3846154 C15.8855833,15.3846154 16.6313333,15.0538462 17.1696667,14.5915385 C17.7072083,14.1284615 18.069,13.5453846 18.3318333,12.9569231 C18.8606667,11.7784615 19,10.61 19,10 C19,9.25153846 18.9414167,8.57 18.579625,7.95692308 C18.2178333,7.34384615 17.4570417,6.92307692 16.625,6.92307692 C16.0035417,6.92307692 15.4747083,7.05230769 15.0416667,7.23538462 L15.0416667,6.00923077 C15.048,5.96153846 15.048,5.91384615 15.0416667,5.86538462 C15.5269583,5.32461538 15.8333333,4.62153846 15.8333333,3.84615385 C15.8333333,2.14538462 14.4170417,0.769230769 12.6666667,0.769230769 C12.162375,0.769230769 11.7261667,0.964615385 11.3057917,1.15384615 C10.8759167,0.964615385 10.4373333,0.769230769 9.89583333,0.769230769 C9.58945833,0.769230769 9.32979167,0.883076923 9.05508333,0.961538462 C8.42095833,0.414615385 7.65383333,0 6.72916667,0 Z M6.72916667,1.53846154 C7.360125,1.53846154 7.82404167,1.79384615 8.26341667,2.28384615 C8.50725,2.55076923 8.90625,2.62 9.22766667,2.45230769 C9.45091667,2.34384615 9.60529167,2.30769231 9.89583333,2.30769231 C10.298,2.30769231 10.6194167,2.40384615 10.9099583,2.57230769 C11.1609167,2.71923077 11.476,2.71923077 11.7261667,2.57230769 C12.0175,2.40384615 12.366625,2.30769231 12.6666667,2.30769231 C13.6095417,2.30769231 14.25,2.93 14.25,3.84615385 C14.25,4.76230769 13.6095417,5.38461538 12.6666667,5.38461538 C12.6049167,5.38461538 12.4347083,5.34230769 12.1964167,5.26461538 C12.1164583,5.24307692 12.0325417,5.23461538 11.9494167,5.24 C11.454625,5.24 10.9067917,5.55 10.6875,5.96153846 C10.4682083,6.37307692 10.4650417,6.74307692 10.4895833,7.13923077 C10.5362917,7.93 10.75875,8.81307692 10.9099583,9.66307692 C11.0619583,10.5138462 11.1205417,11.3161538 10.984375,11.7307692 C10.9162917,11.9384615 10.8205,12.0523077 10.6875,12.1392308 C10.5545,12.2269231 10.328875,12.3076923 9.89583333,12.3076923 C9.42875,12.3076923 9.15641667,12.2115385 9.00520833,12.1153846 C8.854,12.0192308 8.77958333,11.9138462 8.70833333,11.7069231 C8.56583333,11.2923077 8.62204167,10.4961538 8.78275,9.63923077 C8.94345833,8.78307692 9.17225,7.89076923 9.22766667,7.09153846 C9.255375,6.69153846 9.27754167,6.28307692 9.05508333,5.86538462 C8.83183333,5.44769231 8.26895833,5.14461538 7.76783333,5.14461538 C7.638,5.14692308 7.51133333,5.18 7.39733333,5.24 C7.17408333,5.34846154 7.01970833,5.38461538 6.72916667,5.38461538 C6.25020833,5.38461538 5.78629167,5.17692308 5.41816667,4.88 C5.12445833,4.64230769 4.69775,4.64230769 4.40325,4.88 C4.03591667,5.17692308 3.53479167,5.38461538 3.16666667,5.38461538 C2.22379167,5.38461538 1.58333333,4.76230769 1.58333333,3.84615385 C1.58333333,2.93 2.22379167,2.30769231 3.16666667,2.30769231 C3.46670833,2.30769231 3.8095,2.44 3.95833333,2.54769231 C4.30191667,2.79153846 4.78404167,2.72846154 5.046875,2.40384615 C5.48308333,1.86 6.04279167,1.53846154 6.72916667,1.53846154 Z M4.89883333,6.34615385 C5.415,6.66153846 6.01191667,6.92307692 6.72916667,6.92307692 C7.06008333,6.92307692 7.34745833,6.79692308 7.64433333,6.70692308 C7.65383333,6.76076923 7.68154167,6.80307692 7.66966667,6.99538462 C7.64433333,7.35538462 7.52083333,7.88769231 7.39733333,8.46153846 L3.95833333,8.46153846 L3.95833333,16.1538462 C3.95833333,17.29 4.33279167,18.0076923 4.82441667,18.4615385 L3.95833333,18.4615385 C3.29966667,18.4615385 2.95608333,18.3053846 2.74629167,18.1007692 C2.53570833,17.8969231 2.375,17.5630769 2.375,16.9230769 L2.375,6.80307692 C2.62833333,6.86615385 2.89116667,6.92307692 3.16666667,6.92307692 C3.838,6.92307692 4.39454167,6.65538462 4.89883333,6.34615385 Z M12.0974583,6.80307692 C12.2771667,6.85076923 12.4220417,6.92307692 12.6666667,6.92307692 C12.9421667,6.92307692 13.205,6.86615385 13.4583333,6.80307692 L13.4583333,8.46153846 L12.295375,8.46153846 C12.1900833,7.91769231 12.0942917,7.41 12.0729167,7.06769231 C12.0634167,6.89307692 12.08875,6.86615385 12.0974583,6.80307692 Z M16.625,8.46153846 C17.0612083,8.46153846 17.0794167,8.50923077 17.1942083,8.70153846 C17.3082083,8.89384615 17.4166667,9.36615385 17.4166667,10 C17.4166667,10.3123077 17.2741667,11.4576923 16.872,12.3553846 C16.6717083,12.8061538 16.4057083,13.1792308 16.1056667,13.4376923 C15.805625,13.6961538 15.5024167,13.8461538 15.0416667,13.8461538 L15.0416667,9.11076923 C15.088375,9.05384615 15.1564583,8.98769231 15.264125,8.89384615 C15.50875,8.69 15.89825,8.46153846 16.625,8.46153846 Z" id="icons8-beer"></path>
        </g>
    </g>
</svg>