<?xml version="1.0" encoding="UTF-8"?>
<svg width="24px" height="20px" viewBox="0 0 24 20" version="1.1" xmlns="http://www.w3.org/2000/svg" xmlns:xlink="http://www.w3.org/1999/xlink">
    <!-- Generator: Sketch 49.2 (51160) - http://www.bohemiancoding.com/sketch -->
    <title>icon-people-selected</title>
    <desc>Created with Sketch.</desc>
    <defs></defs>
    <g id="Symbols" stroke="none" stroke-width="1" fill="none" fill-rule="evenodd">
        <g id="icon-people-selected" fill="#FF8A65">
            <g id="icon/profile_selected" transform="translate(0.000000, 3.000000)">
                <path d="M0.157777778,16.44937 C-0.296444444,12.75952 -0.356888889,7.81762 8.51688889,7.81762 C16.6635556,7.81762 15.228,16.15272 15.228,16.15272 L0.157777778,16.44937 Z M9.44702222,0.35394 C12.3945778,1.47849 12.0470222,5.28139 9.43724444,6.62099 C7.23546667,7.75149 2.96257778,6.21979 3.5048,3.36464 C3.76524444,1.99444 4.54657778,0.76449 5.95902222,0.25704 C6.94391111,-0.09656 8.05146667,-0.06426 9.05857778,0.22474 C9.19102222,0.26299 9.3208,0.30549 9.44702222,0.35394 Z" id="icon-profile"></path>
            </g>
            <g id="icon/profile_selected" transform="translate(8.000000, 0.000000)">
                <path d="M0.157777778,16.44937 C-0.296444444,12.75952 -0.356888889,7.81762 8.51688889,7.81762 C16.6635556,7.81762 15.228,16.15272 15.228,16.15272 L0.157777778,16.44937 Z M9.44702222,0.35394 C12.3945778,1.47849 12.0470222,5.28139 9.43724444,6.62099 C7.23546667,7.75149 2.96257778,6.21979 3.5048,3.36464 C3.76524444,1.99444 4.54657778,0.76449 5.95902222,0.25704 C6.94391111,-0.09656 8.05146667,-0.06426 9.05857778,0.22474 C9.19102222,0.26299 9.3208,0.30549 9.44702222,0.35394 Z" id="icon-profile"></path>
            </g>
        </g>
    </g>
</svg>