<?xml version="1.0" encoding="UTF-8"?>
<svg width="20px" height="19px" viewBox="0 0 20 19" version="1.1" xmlns="http://www.w3.org/2000/svg" xmlns:xlink="http://www.w3.org/1999/xlink">
    <!-- Generator: Sketch 49.2 (51160) - http://www.bohemiancoding.com/sketch -->
    <title>icon-chat</title>
    <desc>Created with Sketch.</desc>
    <defs></defs>
    <g id="Symbols" stroke="none" stroke-width="1" fill="none" fill-rule="evenodd">
        <g id="navbar/none" transform="translate(-242.000000, -11.000000)" fill="#2A343C">
            <g id="icon/chat_dark" transform="translate(242.000000, 11.000000)">
                <path d="M4.83533357,1.05389793 C4.30783357,1.06463706 3.78033357,1.07537619 3.25283357,1.08528923 C3.05033357,1.08941966 2.84700023,1.0935501 2.6436669,1.09768053 C2.1336669,1.10841966 1.5911669,1.12824575 1.17033357,1.41324575 C0.583666899,1.81059358 0.418666899,2.58381097 0.320333566,3.28102836 C-0.066333101,6.01868053 -0.162999768,8.82241966 0.369500232,11.5361153 C0.545333566,12.4324197 0.888666899,13.4336371 1.74033357,13.7789414 C2.10283357,13.9259849 2.50533357,13.9276371 2.8961669,13.9276371 C4.46033357,13.926811 6.02533357,13.926811 7.59033357,13.9259849 C9.41950023,13.9251588 11.2486669,13.9251588 13.0778336,13.9243327 C12.0953336,15.6607675 10.5045002,17.0518979 8.6436669,17.8019849 C8.92283357,18.1530718 9.20200023,18.5049849 9.4811669,18.8560718 C9.4811669,18.8560718 9.49700023,18.8758979 9.51283357,18.895724 C9.64783357,18.8618544 9.78283357,18.8279849 9.78283357,18.8279849 C10.1695002,18.7305066 10.7986669,18.4975501 10.9045002,18.4620284 C11.3911669,18.2984631 11.8686669,18.1092892 12.3336669,17.8953327 C15.1653336,16.5909414 17.5386669,14.4753327 18.3678336,11.4204631 C18.7203336,10.1202023 18.8386669,8.79433271 18.9795002,7.46185445 C19.1295002,6.04428923 19.3903336,4.29050662 18.9803336,2.90433271 C18.7878336,2.2525501 18.4036669,1.63711532 17.8253336,1.27363706 C16.9011669,0.692897925 15.7128336,0.835810969 14.6720002,0.856463143 C13.4028336,0.882071838 12.1345002,0.907680534 10.8653336,0.932463143 C8.85533357,0.972941404 6.84533357,1.01341966 4.83533357,1.05389793" id="icon-chat"></path>
            </g>
        </g>
    </g>
</svg>