<?xml version="1.0" encoding="UTF-8"?>
<svg width="20px" height="19px" viewBox="0 0 20 19" version="1.1" xmlns="http://www.w3.org/2000/svg" xmlns:xlink="http://www.w3.org/1999/xlink">
    <!-- Generator: Sketch 49.2 (51160) - http://www.bohemiancoding.com/sketch -->
    <title>icon-chat-selected</title>
    <desc>Created with Sketch.</desc>
    <defs></defs>
    <g id="Symbols" stroke="none" stroke-width="1" fill="none" fill-rule="evenodd">
        <g id="icon/chat_selected" fill="#FF8A65">
            <path d="M4.83525,0.76313913 C4.30775,0.773878261 3.78025,0.784617391 3.25275,0.794530435 C3.05025,0.79866087 2.84691667,0.802791304 2.64358333,0.806921739 C2.13358333,0.81766087 1.59108333,0.837486957 1.17025,1.12248696 C0.583583333,1.51983478 0.418583333,2.29305217 0.32025,2.99026957 C-0.0664166667,5.72792174 -0.163083333,8.53166087 0.369416667,11.2453565 C0.54525,12.1416609 0.888583333,13.1428783 1.74025,13.4881826 C2.10275,13.6352261 2.50525,13.6368783 2.89608333,13.6368783 C4.46025,13.6360522 6.02525,13.6360522 7.59025,13.6352261 C9.41941667,13.6344 11.2485833,13.6344 13.07775,13.6335739 C12.09525,15.3700087 10.5044167,16.7611391 8.64358333,17.5112261 C8.92275,17.862313 9.20191667,18.2142261 9.48108333,18.565313 C9.48108333,18.565313 9.49691667,18.5851391 9.51275,18.6049652 C9.64775,18.5710957 9.78275,18.5372261 9.78275,18.5372261 C10.1694167,18.4397478 10.7985833,18.2067913 10.9044167,18.1712696 C11.3910833,18.0077043 11.8685833,17.8185304 12.3335833,17.6045739 C15.16525,16.3001826 17.5385833,14.1845739 18.36775,11.1297043 C18.72025,9.82944348 18.8385833,8.50357391 18.9794167,7.17109565 C19.1294167,5.75353043 19.39025,3.99974783 18.98025,2.61357391 C18.78775,1.9617913 18.4035833,1.34635652 17.82525,0.982878261 C16.9010833,0.40213913 15.71275,0.545052174 14.6719167,0.565704348 C13.40275,0.591313043 12.1344167,0.616921739 10.86525,0.641704348 C8.85525,0.682182609 6.84525,0.72266087 4.83525,0.76313913" id="icon-chat"></path>
        </g>
    </g>
</svg>