<?xml version="1.0" encoding="UTF-8"?>
<svg width="24px" height="20px" viewBox="0 0 24 20" version="1.1" xmlns="http://www.w3.org/2000/svg" xmlns:xlink="http://www.w3.org/1999/xlink">
    <!-- Generator: Sketch 49.2 (51160) - http://www.bohemiancoding.com/sketch -->
    <title>icon-people</title>
    <desc>Created with Sketch.</desc>
    <defs></defs>
    <g id="Symbols" stroke="none" stroke-width="1" fill="none" fill-rule="evenodd">
        <g id="navbar/none" transform="translate(-167.000000, -10.000000)" fill="#2A343C">
            <g id="icon-people" transform="translate(167.000000, 10.000000)">
                <g id="icon/profile_dark" transform="translate(0.000000, 3.000000)">
                    <path d="M0.157686788,16.449455 C-0.296535434,12.759605 -0.356979879,7.817705 8.5167979,7.817705 C16.6634646,7.817705 15.227909,16.152805 15.227909,16.152805 L0.157686788,16.449455 Z M9.44693123,0.354025 C12.3944868,1.478575 12.0469312,5.281475 9.43715345,6.621075 C7.23537568,7.751575 2.96248679,6.219875 3.50470901,3.364725 C3.76515345,1.994525 4.54648679,0.764575 5.95893123,0.257125 C6.94382012,-0.096475 8.05137568,-0.064175 9.05848679,0.224825 C9.19093123,0.263075 9.32070901,0.305575 9.44693123,0.354025 Z" id="icon-profile"></path>
                </g>
                <g id="icon/profile_dark" transform="translate(8.000000, 0.000000)">
                    <path d="M0.157686788,16.449455 C-0.296535434,12.759605 -0.356979879,7.817705 8.5167979,7.817705 C16.6634646,7.817705 15.227909,16.152805 15.227909,16.152805 L0.157686788,16.449455 Z M9.44693123,0.354025 C12.3944868,1.478575 12.0469312,5.281475 9.43715345,6.621075 C7.23537568,7.751575 2.96248679,6.219875 3.50470901,3.364725 C3.76515345,1.994525 4.54648679,0.764575 5.95893123,0.257125 C6.94382012,-0.096475 8.05137568,-0.064175 9.05848679,0.224825 C9.19093123,0.263075 9.32070901,0.305575 9.44693123,0.354025 Z" id="icon-profile"></path>
                </g>
            </g>
        </g>
    </g>
</svg>